<svg id="EwDosbox" xmlns="http://www.w3.org/2000/svg" viewBox="0 0 523.27 110.35"><defs><style>.cls-1{fill:#f2e9dc;}</style></defs><path id="E" class="cls-1" d="M266,80.58H227.61v34h16.56c3.28,0,5.53,3.78,5.44,7,.07,3.36-2,7.13-5.44,7.14H227.61v34.2h38.56c5.36.16,7,8.32,3.78,11.91a4.9,4.9,0,0,1-3.91,2h-49.3V66.47H266A4.84,4.84,0,0,1,270,68.58C273.18,72.28,271.5,80.41,266,80.58Z" transform="translate(-216.74 -66.45)"/><path id="w" class="cls-1" d="M316.33,127.58v16.54l7.24,16.15,3.77-15.94,1.15-40.67c0-5.14,5.35-9.82,9.32-4.94a7.46,7.46,0,0,1,1.55,4.94l-1.17,43.41-5.82,24.65c-.83,3.38-2.51,5.07-5.07,5.07h-5.83q-3.06,0-4.8-3.87l-5.91-13.15-5.92,13q-2,4-4.8,4h-5.7c-2.52.06-4.88-2.33-5.32-4.74l-5.69-25.56-1.23-42.83a7.27,7.27,0,0,1,1.62-4.86c3.86-4.9,9.45-.5,9.25,4.85l1.24,40.84,3.55,15.61,7.57-16.41V127.6a7.67,7.67,0,0,1,1.61-4.91C310.82,117.94,316.57,122.29,316.33,127.58Z" transform="translate(-216.74 -66.45)"/><path id="D" class="cls-1" d="M355.61,66.47h21.48c6.07.07,11.93,6,14,11.7l10.74,27.89a41,41,0,0,1-.19,31.46l-10.81,27.56c-2.47,6.42-7.72,11.73-14.62,11.71H355.48c-5.43-.19-6.91-8.33-3.85-12a4.7,4.7,0,0,1,3.85-2.12h5.7V80.58h-5.57C348.46,80.28,348.38,66.75,355.61,66.47Zm16.44,14.11v82.26c4.3,0,7.14.66,9.22-4.58L392,130.87c2.56-6.76,2.69-11.6.42-17.67L381.3,84.81C379.36,80.05,376.16,80.54,372.05,80.58Z" transform="translate(-216.74 -66.45)"/><path id="o" class="cls-1" d="M471.83,121.83V151.3q0,9.39-6.89,17.35t-14.21,8H438c-10.61.26-21.63-14.93-21-25.32V121.83q0-9.12,6.63-17.22T438,96.52h12.74C461.45,96.12,472.47,111.16,471.83,121.83Zm-43.87.59v28.22a8.42,8.42,0,0,0,2.14,6.06l4.07,4.48a4.89,4.89,0,0,0,3.82,1.49h12.62a6.62,6.62,0,0,0,5-2.57l3.3-3.73a7.5,7.5,0,0,0,2-5.57V122.58c0-2.77-.67-4.81-2-6.14l-3.82-3.9a6,6,0,0,0-4.52-2.08H439.35a7.27,7.27,0,0,0-5.7,2.24L430,116.77A8,8,0,0,0,428,122.42Z" transform="translate(-216.74 -66.45)"/><path id="s" class="cls-1" d="M499.08,96.68H524c6.63-.49,14.8,6.94,14.75,13.12.11,6.08-6.21,9.62-10,3.82-1.42-2-2.91-3-4.46-3H499.66c-4.49-.32-4.74,6.27-1.2,8l28.89,16.51a18.46,18.46,0,0,1,7.22,8c4.29,8.16,3.75,20.41-2.14,27.43q-4.95,6.23-11.22,6.23h-22a15.55,15.55,0,0,1-10.58-4.4q-4.89-4.41-4.88-8.55c0-5.86,5.9-10,10.12-4a8.19,8.19,0,0,0,6.83,3H521c3.62,0,5.69-4.41,5.63-7.8q0-4.74-3.63-6.81l-29.18-16.85a16,16,0,0,1-6.47-7C481.84,114.45,486.61,97,499.08,96.68Z" transform="translate(-216.74 -66.45)"/><path id="b" class="cls-1" d="M561.79,73.44v32.79l4.78-4.9q4.53-4.81,9.39-4.81h10q5.51,0,9.77,4.81l5.18,5.73c3.15,3.54,5,10.74,4.91,15.69V151a27.59,27.59,0,0,1-1.29,8.05,18,18,0,0,1-3,6.23L596.79,171c-2,2.65-7.65,5.88-10.87,5.82H576.6q-6.79,0-14.81-9.72v2.74c-.15,9.19-10.7,9.28-10.87,0V73.44a7.68,7.68,0,0,1,1.62-4.94C556.38,63.67,562.09,68.22,561.79,73.44Zm23.29,37.19h-7.51a5.27,5.27,0,0,0-4.14,1.58l-9.77,10.7q-1.87,2.16-1.87,6.48v15.77a8.28,8.28,0,0,0,2.13,5.81l8.74,9.46a5.21,5.21,0,0,0,3.94,2.24h8.87a4.2,4.2,0,0,0,3.23-1.49l4.34-5a6.23,6.23,0,0,0,1.74-4.73V122.08a7.42,7.42,0,0,0-1.74-5.31l-3.95-4.23A5.43,5.43,0,0,0,585.08,110.63Z" transform="translate(-216.74 -66.45)"/><path id="o-2" data-name="o" class="cls-1" d="M672.18,121.83V151.3q0,9.39-6.89,17.35t-14.2,8H638.34c-10.6.26-21.62-14.93-21-25.32V121.83q0-9.12,6.64-17.22t14.39-8.09h12.75C661.8,96.12,672.82,111.16,672.18,121.83Zm-43.87.59v28.22a8.42,8.42,0,0,0,2.14,6.06l4.07,4.48a4.89,4.89,0,0,0,3.82,1.49H651a6.62,6.62,0,0,0,5-2.57l3.3-3.73a7.5,7.5,0,0,0,2-5.57V122.58c0-2.77-.67-4.81-2-6.14l-3.81-3.9a6,6,0,0,0-4.53-2.08H639.7A7.24,7.24,0,0,0,634,112.7l-3.69,4.07A8,8,0,0,0,628.31,122.42Z" transform="translate(-216.74 -66.45)"/><path id="x" class="cls-1" d="M712.57,146.69l-17.8,27.19c-3.65,6.11-10.07,1.64-9.77-4.23a7.65,7.65,0,0,1,1-4.24l19.55-29.91L687.53,108a7.26,7.26,0,0,1-1.23-4.15c-.17-5.79,5.84-10.24,9.81-4.54l16.41,25.36,16.86-25.56c3.23-5.24,9.67-1,9.32,4.24a7.48,7.48,0,0,1-.71,3.9L719.6,135.59l19.3,29.82c2.57,3.66.51,11.24-4.34,11.38q-2.52,0-4.39-2.91Z" transform="translate(-216.74 -66.45)"/></svg>