<svg id="Layer_3" data-name="Layer 3" xmlns="http://www.w3.org/2000/svg" viewBox="0 0 544 134">
<defs>
    <style>
    .cls-1
    {
        fill:#f1e9de;
    }
    </style>
</defs>
    <path id="X" class="cls-1" d="M455.4,121.16l8.28-9.66,16.74-43.45L463.68,24.6l-8.28-9.67h31.84l-3.14,3.66,7.69,19.92,7.68-19.92-3.14-3.66h31.84l-8.28,9.67L503.15,68.05l16.74,43.45,8.28,9.66H496.33l3.14-3.66-7.68-19.92L484.1,117.5l3.14,3.66Z"/>
    <path id="O" class="cls-1" d="M405.47,99.92V36.18q0-21.25,18.19-21.25h18.19Q460,14.93,460,36.18V99.92q0,21.24-18.19,21.24H423.66Q405.46,121.16,405.47,99.92Zm22.74-58.43V94.6q0,5.33,4.54,5.32c3,0,4.55-1.77,4.55-5.32V41.49c0-3.54-1.51-5.31-4.55-5.31S428.21,38,428.21,41.49Z"/>
    <path id="B" class="cls-1" d="M346.35,62.73V20.24l-4.55-5.31h40.93q18.18,0,18.19,21.25,0,20.18-12.78,31.87,12.78,11.69,12.78,31.87,0,21.24-18.19,21.24H341.8l4.55-5.31V73.36l-4.55-5.31Zm22.73-5.31q9.1-5.31,9.1-13.28t-4.55-8h-4.55Zm0,21.25V99.92h4.55q4.55,0,4.55-8T369.08,78.67Z"/>
    <path id="S" class="cls-1" d="M332.7,41.49l-4.55-5.31H314.51q-4.54,0-4.55,5.31,0,10.62,15.92,21.24T341.8,94.6q0,26.57-18.19,26.56H291.77l4.55-26.56,4.55,5.32h13.64q4.55,0,4.55-5.32,0-10.62-15.92-21.24T287.22,41.49q0-26.56,18.19-26.56h31.84Z"/>
    <path id="O-2" data-name="O" class="cls-1" d="M228.1,99.92V36.18q0-21.25,18.19-21.25h18.19q18.19,0,18.2,21.25V99.92q0,21.24-18.2,21.24H246.29Q228.11,121.16,228.1,99.92Zm22.74-58.43V94.6q0,5.33,4.55,5.32t4.55-5.32V41.49q0-5.31-4.55-5.31T250.84,41.49Z"/>
    <path id="D" class="cls-1" d="M165.25,73.36l-4.55-5.31,4.55-5.32V20.24l-4.55-5.31h40.93q18.19,0,18.19,21.25V99.92q0,21.24-18.19,21.24H160.7l4.55-5.31ZM188,36.18V99.92h4.55q4.54,0,4.55-5.32V41.49q0-5.31-4.55-5.31Z"/>
    <path id="W" class="cls-1" d="M66.56,21.57l-5.68-6.64H92.71L88.8,19.5l8.46,59.17,8.46-59.17-3.91-4.57h22.74l-3.91,4.57,8.46,59.17,8.45-59.17-3.91-4.57h31.84l-5.69,6.64-16.28,95.18,3.78,4.41H115.45l3.64-4.25-5.91-27.62-5.91,27.62,3.63,4.25H79.07l3.77-4.41Z"/>
    <path id="E" class="cls-1" d="M59.47,41.49l-4.55-5.31H41.28V57.42H64l-9.1,21.25H41.28V99.92H54.92l4.55-5.32L64,121.16H14l4.55-5.31V78.67H9.44l9.1-21.25V20.24L14,14.93H64Z"/>
</svg>